<svg xmlns="http://www.w3.org/2000/svg" width="24" height="24" viewBox="0 0 3 3" style="enable-background:new 0 0 512 512" xml:space="preserve"><path d="M.703 3h1.594a.281.281 0 0 0 .281-.281V.469a.281.281 0 0 0-.281-.281h-.204A.281.281 0 0 0 1.828 0h-.656a.281.281 0 0 0-.265.188H.703a.281.281 0 0 0-.281.281v2.25A.281.281 0 0 0 .703 3zM1.172.188h.656a.094.094 0 0 1 0 .188h-.656a.094.094 0 0 1 0-.188zM.609.469A.094.094 0 0 1 .703.375h.204a.281.281 0 0 0 .265.188h.656a.281.281 0 0 0 .265-.188h.204a.094.094 0 0 1 .094.094v2.25a.094.094 0 0 1-.094.094H.703a.094.094 0 0 1-.094-.094z" data-original="#000000"/><path d="M1.266 2.127a.094.094 0 0 0 .07.03h.005a.094.094 0 0 0 .07-.037l.75-.984a.094.094 0 0 0-.149-.113l-.684.895-.276-.294a.094.094 0 1 0-.137.128z" data-original="#000000"/></svg>